# xmcd CD database file
#
# Track frame offsets:
#	150
#	30056
#	57451
#	78608
#	109294
#	135932
#	164926
#	181493
#	202711
#	236259
#	250296
#	280216
#
# Disc length: 4393 seconds
#
# Revision: 0
# Processed by: cddbd v1.5.2PL0 Copyright (c) Steve Scherf et al.
# Submitted via: CDex 1.50
#
DISCID=9f11270c
DTITLE=Nozen - Live! au Upstairs
DYEAR=2009
DGENRE=Jazz
TTITLE0=Ça coule, ça coule!
TTITLE1=No soap
TTITLE2=Quién me corre?
TTITLE3=Jour de mariage
TTITLE4=El loco
TTITLE5=There's a cat in da house
TTITLE6=No es bueno que el hombre esté solo
TTITLE7=Stop jumping!
TTITLE8=A hole in my shoe
TTITLE9=Danza del pantalon
TTITLE10=Spread the news
TTITLE11=No milk no sugar
EXTD=YEAR: 2009
EXTT0=
EXTT1=
EXTT2=
EXTT3=
EXTT4=
EXTT5=
EXTT6=
EXTT7=
EXTT8=
EXTT9=
EXTT10=
EXTT11=
PLAYORDER=
